<mxfile host="app.diagrams.net" modified="2023-05-28T03:40:24.035Z" agent="Mozilla/5.0 (X11; Linux x86_64; rv:109.0) Gecko/20100101 Firefox/113.0" version="21.3.4" etag="5hXzXFpIa-In44K88F0z" type="github">
  <diagram name="Page-1" id="yxfu-jU6VKn26wTLMHXY">
    <mxGraphModel>
      <root>
        <mxCell id="0" />
        <mxCell id="1" parent="0" />
      </root>
    </mxGraphModel>
  </diagram>
</mxfile>
